<?xml version="1.0"?>
<svg version="1.1" xmlns="http://www.w3.org/2000/svg" xmlns:xlink="http://www.w3.org/1999/xlink" width="486.569" height="486.569">
    <desc iVinci="yes" version="4.6" gridStep="20" showGrid="no" snapToGrid="no" codePlatform="0"/>
    <g id="Layer1" name="Layer 2" opacity="1">
        <g id="Shape1">
            <desc shapeID="1" type="0" basicInfo-basicType="0" basicInfo-roundedRectRadius="12" basicInfo-polygonSides="6" basicInfo-starPoints="5" bounding="rect(-168.5,-102.594,337,205.189)" text="" font-familyName="Helvetica" font-pixelSize="20" font-bold="0" font-underline="0" font-alignment="1" strokeStyle="0" markerStart="0" markerEnd="0" shadowEnabled="0" shadowOffsetX="0" shadowOffsetY="2" shadowBlur="4" shadowOpacity="160" blurEnabled="0" blurRadius="4" transform="matrix(1,0,0,0.91623,281,204.5)" pers-center="0,0" pers-size="0,0" pers-start="0,0" pers-end="0,0" locked="0" mesh="" flag=""/>
            <path id="shapePath1" d="M112.5,110.5 L449.5,156.5 L445.5,298.5 L112.5,298.5 L112.5,110.5 Z" style="stroke:#323232;stroke-opacity:1;stroke-width:1;stroke-linejoin:miter;stroke-miterlimit:2;stroke-linecap:round;fill-rule:evenodd;fill:#000000;fill-opacity:0.313726;"/>
        </g>
        <g id="Shape2">
            <desc shapeID="2" type="0" basicInfo-basicType="4" basicInfo-roundedRectRadius="12" basicInfo-polygonSides="6" basicInfo-starPoints="5" bounding="rect(-31.5,-28.5,63,57)" text="" font-familyName="Helvetica" font-pixelSize="20" font-bold="0" font-underline="0" font-alignment="1" strokeStyle="0" markerStart="0" markerEnd="0" shadowEnabled="0" shadowOffsetX="0" shadowOffsetY="2" shadowBlur="4" shadowOpacity="160" blurEnabled="0" blurRadius="4" transform="matrix(1,0,0,1,186,433)" pers-center="0,0" pers-size="0,0" pers-start="0,0" pers-end="0,0" locked="0" mesh="" flag=""/>
            <path id="shapePath2" d="M154.5,433 C154.5,417.26 168.603,404.5 186,404.5 C203.397,404.5 217.5,417.26 217.5,433 C217.5,448.74 203.397,461.5 186,461.5 C168.603,461.5 154.5,448.74 154.5,433 Z" style="stroke:#323232;stroke-opacity:1;stroke-width:1;stroke-linejoin:miter;stroke-miterlimit:2;stroke-linecap:round;fill-rule:evenodd;fill:#000000;fill-opacity:0.313726;"/>
        </g>
        <g id="Shape3">
            <desc shapeID="3" type="0" basicInfo-basicType="4" basicInfo-roundedRectRadius="12" basicInfo-polygonSides="6" basicInfo-starPoints="5" bounding="rect(-29,-33.5,58,67)" text="" font-familyName="Helvetica" font-pixelSize="20" font-bold="0" font-underline="0" font-alignment="1" strokeStyle="0" markerStart="0" markerEnd="0" shadowEnabled="0" shadowOffsetX="0" shadowOffsetY="2" shadowBlur="4" shadowOpacity="160" blurEnabled="0" blurRadius="4" transform="matrix(1,0,0,1,402.5,430)" pers-center="0,0" pers-size="0,0" pers-start="0,0" pers-end="0,0" locked="0" mesh="" flag=""/>
            <path id="shapePath3" d="M373.5,430 C373.5,411.498 386.484,396.5 402.5,396.5 C418.516,396.5 431.5,411.498 431.5,430 C431.5,448.501 418.516,463.5 402.5,463.5 C386.484,463.5 373.5,448.501 373.5,430 Z" style="stroke:#323232;stroke-opacity:1;stroke-width:1;stroke-linejoin:miter;stroke-miterlimit:2;stroke-linecap:round;fill-rule:evenodd;fill:#000000;fill-opacity:0.313726;"/>
        </g>
    </g>
    <g id="Layer2" name="Layer 1" opacity="1">
        <g id="Shape4">
            <desc shapeID="4" type="0" basicInfo-basicType="0" basicInfo-roundedRectRadius="12" basicInfo-polygonSides="6" basicInfo-starPoints="5" bounding="rect(-226.084,-243.284,452.169,486.569)" text="" font-familyName="" font-pixelSize="20" font-bold="0" font-underline="0" font-alignment="1" strokeStyle="0" markerStart="0" markerEnd="0" shadowEnabled="0" shadowOffsetX="0" shadowOffsetY="2" shadowBlur="4" shadowOpacity="160" blurEnabled="0" blurRadius="4" transform="matrix(1,0,0,1,243.285,243.285)" pers-center="0,0" pers-size="0,0" pers-start="0,0" pers-end="0,0" locked="0" mesh="" flag=""/>
            <path id="shapePath4" d="M146.069,320.369 L414.169,320.369 C444.569,320.369 469.369,295.569 469.369,265.169 L469.369,152.369 C469.369,152.269 469.369,152.069 469.369,151.969 C469.369,151.669 469.369,151.469 469.369,151.169 C469.369,150.969 469.369,150.769 469.269,150.569 C469.269,150.369 469.169,150.069 469.169,149.869 C469.169,149.669 469.069,149.469 469.069,149.269 C468.969,149.069 468.969,148.869 468.869,148.569 C468.769,148.369 468.769,148.169 468.669,147.969 C468.569,147.769 468.569,147.569 468.469,147.369 C468.369,147.169 468.269,146.969 468.169,146.669 C468.069,146.469 467.969,146.269 467.869,146.169 C467.769,145.969 467.669,145.769 467.569,145.569 C467.469,145.369 467.369,145.269 467.269,145.069 C467.169,144.869 466.969,144.669 466.869,144.469 C466.769,144.269 466.669,144.169 466.469,143.969 C466.369,143.769 466.169,143.669 466.069,143.469 C465.969,143.269 465.769,143.169 465.669,142.969 C465.569,142.769 465.369,142.669 465.269,142.569 C465.069,142.369 464.969,142.269 464.769,142.069 C464.569,141.969 464.469,141.769 464.269,141.669 C464.069,141.569 463.869,141.369 463.669,141.269 C463.469,141.169 463.369,141.069 463.169,140.969 C462.969,140.869 462.769,140.769 462.569,140.569 C462.369,140.469 462.169,140.369 461.969,140.269 C461.769,140.169 461.569,140.069 461.369,139.969 C461.169,139.869 460.969,139.769 460.769,139.669 C460.569,139.569 460.369,139.569 460.169,139.469 C459.969,139.369 459.669,139.269 459.469,139.269 C459.269,139.269 459.069,139.169 458.969,139.169 C458.669,139.069 458.469,139.069 458.169,139.069 C458.069,139.069 457.969,138.969 457.769,138.969 L117.969,92.069 L117.969,44.669 C117.969,44.169 117.969,43.669 117.869,43.269 C117.869,43.169 117.869,43.069 117.769,42.869 C117.769,42.569 117.669,42.269 117.669,41.969 C117.569,41.669 117.569,41.469 117.469,41.169 C117.469,40.969 117.369,40.869 117.369,40.669 C117.269,40.369 117.169,40.069 117.069,39.769 C117.069,39.669 116.969,39.469 116.969,39.369 C116.869,39.069 116.769,38.869 116.569,38.569 C116.469,38.469 116.469,38.269 116.369,38.169 C116.269,37.969 116.169,37.769 115.969,37.569 C115.869,37.369 115.769,37.269 115.669,37.069 C115.569,36.869 115.469,36.769 115.369,36.569 C115.269,36.369 115.069,36.169 114.969,35.969 C114.869,35.869 114.769,35.769 114.669,35.669 C114.469,35.469 114.269,35.269 114.069,35.069 C113.969,34.969 113.869,34.869 113.769,34.769 C113.569,34.569 113.369,34.369 113.069,34.169 C112.969,34.069 112.769,33.969 112.669,33.869 C112.469,33.669 112.269,33.569 112.069,33.369 C111.769,33.169 111.469,32.969 111.269,32.869 C111.169,32.769 111.069,32.769 110.969,32.669 C110.569,32.469 110.069,32.269 109.669,32.069 L35.969,1.069 C29.069,-1.83099 21.169,1.369 18.269,8.269 C15.369,15.169 18.569,23.069 25.469,25.969 L90.869,53.569 L90.869,114.769 L90.869,124.469 L90.869,198.869 L90.869,265.369 L90.869,349.369 C90.869,377.369 111.869,400.569 138.969,404.069 C134.069,412.269 131.169,421.869 131.169,432.069 C131.169,462.169 155.669,486.569 185.669,486.569 C215.669,486.569 240.169,462.069 240.169,432.069 C240.169,422.069 237.469,412.569 232.669,404.569 L354.069,404.569 C349.269,412.669 346.569,422.069 346.569,432.069 C346.569,462.169 371.069,486.569 401.069,486.569 C431.069,486.569 455.569,462.069 455.569,432.069 C455.569,402.069 431.069,377.569 401.069,377.569 L146.069,377.569 C130.469,377.569 117.869,364.869 117.869,349.369 L117.869,312.769 C126.069,317.569 135.769,320.369 146.069,320.369 M213.269,431.969 C213.269,447.169 200.869,459.469 185.769,459.469 C170.669,459.469 158.269,447.069 158.269,431.969 C158.269,416.869 170.669,404.469 185.769,404.469 C200.869,404.469 213.269,416.769 213.269,431.969 M428.669,431.969 C428.669,447.169 416.269,459.469 401.169,459.469 C386.069,459.469 373.669,447.069 373.669,431.969 C373.669,416.869 386.069,404.469 401.169,404.469 C416.269,404.469 428.669,416.769 428.669,431.969 M414.169,293.369 L146.069,293.369 C130.469,293.369 117.869,280.669 117.869,265.169 L117.869,198.669 L117.869,124.269 L117.869,119.269 L442.369,163.969 L442.369,265.069 C442.369,280.769 429.669,293.369 414.169,293.369 Z" style="stroke:none;fill-rule:nonzero;fill:#000000;fill-opacity:1;"/>
        </g>
    </g>
</svg>
