<?xml version="1.0" encoding="UTF-8"?><!DOCTYPE svg PUBLIC "-//W3C//DTD SVG 1.1//EN" "http://www.w3.org/Graphics/SVG/1.1/DTD/svg11.dtd"><svg xmlns="http://www.w3.org/2000/svg"><symbol id="icon-back" viewBox="0 0 477.2 477.2"><path d="M145.2 238.6L360.7 23c5.3-5.3 5.3-13.8 0-19.1s-13.8-5.3-19.1 0L116.5 229a13.5 13.5 0 0 0 0 19.2l225 225c2.7 2.6 6.2 4 9.6 4s6.9-1.3 9.5-4a13.5 13.5 0 0 0 0-19.1L145.2 238.6z"/></symbol><symbol id="icon-community" viewBox="0 0 502.6 502.6">
  <circle cx="250.4" cy="91.5" r="58.7"/>
  <path d="M455.9 253l-54.7-11.4a44.8 44.8 0 0 0-46.8 19.8c-9.5-4.8-19.6-9-30.4-12.5v-32.5a44.8 44.8 0 0 0-44.7-44.7h-56a44.8 44.8 0 0 0-44.6 44.7v32.7a197.8 197.8 0 0 0-30.3 12.5 44.8 44.8 0 0 0-46.8-20L46.9 253a45 45 0 0 0-34.6 53L26 371.6a44.9 44.9 0 0 0 52.9 34.7l17.3-3.7a126.6 126.6 0 0 0 36 34.7c32 21 74.3 32.5 119.1 32.5 68.6 0 127.7-27.6 155-67.2l17.6 3.7c24 5 47.9-10.6 52.8-34.7l13.8-65.6a45 45 0 0 0-34.6-53zM251.3 447.4c-40.5 0-78.5-10.2-106.8-28.9a112.5 112.5 0 0 1-24.2-21l13.3-2.7a45 45 0 0 0 34.6-53l-12.3-59a162 162 0 0 1 22.8-10v10.7a44.8 44.8 0 0 0 44.7 44.7h55.9a44.8 44.8 0 0 0 44.7-44.7v-11.3c8.1 2.9 15.8 6.2 23 10L334.3 342a45 45 0 0 0 34.7 53l13.4 2.7c-25 29.6-74.4 49.8-131.2 49.8z"/>
  <circle cx="444" cy="168.7" r="58.7"/>
  <path d="M70.7 226.2A58.8 58.8 0 1 0 46.5 111a58.8 58.8 0 0 0 24.2 115z"/>
  
</symbol><symbol id="icon-delivery-truck" viewBox="0 0 612 612">
  <path d="M21.5 377.5V117.1A26.2 26.2 0 0 1 47.7 91h260.2a26.2 26.2 0 0 1 26.2 26.2v260.4c0 4.8-3.9 8.8-8.7 8.8H30.2c-4.8 0-8.7-4-8.7-8.8zm210.1 89.2a54.3 54.3 0 1 1-108.6 0 54.3 54.3 0 0 1 108.6 0zm-27.1 0a27.2 27.2 0 1 0-54.4 0 27.2 27.2 0 0 0 54.4 0zm-74-54.3H8.7A8.8 8.8 0 0 0 0 421v26.5c0 4.8 4 8.7 8.7 8.7h97.6a71.7 71.7 0 0 1 24.2-44zm385.4 54.3a54.3 54.3 0 1 1-108.6 0 54.3 54.3 0 0 1 108.6 0zm-27.1 0a27.2 27.2 0 1 0-54.4 0 27.2 27.2 0 0 0 54.4 0zM612 421.1v26.5c0 4.8-4 8.7-8.7 8.7h-70.7a71.8 71.8 0 0 0-142 0H248.3a71.7 71.7 0 0 0-24.2-44h135V162.7c0-9.7 7.8-17.5 17.5-17.5H459c23.2 0 45 11.6 57.9 30.8l53.2 78.7a69.9 69.9 0 0 1 12 39.1v118.7h21.2c4.8 0 8.7 3.9 8.7 8.7zm-88.6-164.5L481 196.2a8.7 8.7 0 0 0-7.1-3.7h-66.3c-4.9 0-8.8 4-8.8 8.8v60.4c0 4.8 4 8.7 8.8 8.7h108.8c7 0 11.2-8 7.1-13.8z"/>
</symbol><symbol id="icon-discount" viewBox="0 0 512 512">
  <path d="M478 262.6c-2.1-4.2-2.1-9 0-13.2l19-39.1a44.4 44.4 0 0 0-19.1-59l-38.4-20.4a15 15 0 0 1-7.8-10.7l-7.5-42.9A44.4 44.4 0 0 0 374 41l-43.1 6a15 15 0 0 1-12.6-4L287 12.6a44.4 44.4 0 0 0-62 0L193.7 43a15 15 0 0 1-12.6 4l-43-6c-24-3.4-46 12.6-50.3 36.4l-7.5 42.9a15 15 0 0 1-7.8 10.7l-38.4 20.4a44.4 44.4 0 0 0-19.1 59l19 39c2.1 4.3 2.1 9.1 0 13.3l-19 39.1a44.4 44.4 0 0 0 19.1 59l38.4 20.4a15 15 0 0 1 7.8 10.7l7.5 42.9a44.4 44.4 0 0 0 50.3 36.4l43-6a15 15 0 0 1 12.6 4l31.3 30.3a44.5 44.5 0 0 0 62 0l31.3-30.3a15 15 0 0 1 12.6-4l43 6c24 3.4 46-12.6 50.3-36.4l7.5-42.9a15 15 0 0 1 7.8-10.7l38.4-20.4a44.4 44.4 0 0 0 19.2-59l-19.1-39zm-14 72L425.6 355a44.3 44.3 0 0 0-23 31.7l-7.5 42.9a15 15 0 0 1-17 12.3l-43-6a44.3 44.3 0 0 0-37.3 12l-31.3 30.3a15 15 0 0 1-21 0l-31.2-30.3a44.3 44.3 0 0 0-37.3-12l-43 6a15 15 0 0 1-17-12.3l-7.6-42.9a44.3 44.3 0 0 0-23-31.7L48 334.6a15 15 0 0 1-6.5-20l19-39a43.6 43.6 0 0 0 0-39.2l-19-39a15 15 0 0 1 6.5-20L86.4 157a44.3 44.3 0 0 0 23-31.7l7.5-42.9a15 15 0 0 1 17-12.3l43 6c13.8 2 27.4-2.4 37.3-12l31.3-30.3a15 15 0 0 1 21 0l31.3 30.3c10 9.6 23.5 14 37.2 12l43-6a15 15 0 0 1 17 12.3l7.6 42.9a44.3 44.3 0 0 0 23 31.7l38.4 20.4a15 15 0 0 1 6.5 20l-19 39a43.6 43.6 0 0 0 0 39.2l19 39a15 15 0 0 1-6.5 20z"/>
  <path d="M363.9 148.1a14.8 14.8 0 0 0-20.9 0l-194.9 195a14.8 14.8 0 0 0 20.9 20.8L363.9 169a14.8 14.8 0 0 0 0-20.9zm-166.9-25a54.2 54.2 0 1 0 0 108.4 54.2 54.2 0 0 0 0-108.4zm0 78.8a24.6 24.6 0 1 1 0-49.3 24.6 24.6 0 0 1 0 49.3zm118 78.7a54.2 54.2 0 1 0 .2 108.4 54.2 54.2 0 0 0-.1-108.4zm0 78.8a24.6 24.6 0 1 1 .1-49.3 24.6 24.6 0 0 1 0 49.3z"/>
</symbol><symbol id="icon-down-arrow" viewBox="0 0 129 129">
  <path d="M121.3 34.6a4.1 4.1 0 0 0-5.8 0l-51 51.1-51.1-51.1a4.1 4.1 0 0 0-5.8 5.8l53.9 53.9a4 4 0 0 0 2.9 1.2c1 0 2.1-.4 2.9-1.2l53.9-53.9a4 4 0 0 0 .1-5.8z"/>
</symbol><symbol id="icon-home" viewBox="0 0 460.3 460.3">
  <path d="M230.1 121L66 256.2l-.2.8-.1.9v137c0 5 1.8 9.3 5.4 12.9 3.6 3.6 8 5.4 12.9 5.4h109.6V303.7h73.1v109.6h109.6c5 0 9.3-1.8 12.9-5.4 3.6-3.6 5.4-8 5.4-12.9V258a4 4 0 0 0-.3-1.7L230.1 120.9z"/>
  <path d="M457.1 225.4l-62.5-52V57a8.9 8.9 0 0 0-9.1-9.1h-54.9c-2.6 0-4.8.8-6.5 2.5a8.9 8.9 0 0 0-2.6 6.6v55.7l-69.7-58.3c-6-5-13.3-7.4-21.6-7.4-8.4 0-15.7 2.5-21.7 7.4L3.2 225.4a8.3 8.3 0 0 0-3.2 6.2c-.2 2.5.5 4.8 2 6.7l17.7 21.1a9.7 9.7 0 0 0 6 3.2c2.3.1 4.6-.5 6.9-2L230 95.8l197.6 164.8c1.5 1.3 3.5 2 6 2h.9a9.8 9.8 0 0 0 6-3.2l17.7-21.1c1.5-2 2.2-4.2 2-6.7a8.3 8.3 0 0 0-3.2-6.2z"/>
</symbol><symbol id="icon-next" viewBox="0 0 477.2 477.2">
  <path d="M360.7 229L135.7 4c-5.4-5.3-13.9-5.3-19.2 0s-5.3 13.8 0 19L332 238.7 116.5 454a13.6 13.6 0 1 0 9.5 23.1c3.4 0 7-1.3 9.5-4L360.6 248c5.3-5.2 5.3-13.8.1-19z"/>
</symbol><symbol id="icon-search" viewBox="0 0 129 129">
  <path d="M51.6 96.7c11 0 21-3.9 28.8-10.5l35 35c.8.8 1.8 1.2 2.9 1.2s2.1-.4 2.9-1.2a4.1 4.1 0 0 0 0-5.8l-35-35a45 45 0 1 0-34.6 16.3zm0-82a37 37 0 1 1 0 73.9 37 37 0 0 1 0-73.9z"/>
</symbol><symbol id="icon-shopping-cart" viewBox="0 0 486.6 486.6">
  <path d="M146 320.4h268.2a55.3 55.3 0 0 0 55.2-55.2v-114l-.1-.6-.1-.7-.1-.6-.2-.7-.2-.6-.2-.6-.3-.7-.3-.5-.3-.6-.3-.5-.4-.6-.4-.5-.4-.5-.4-.5-.4-.4-.5-.5-.5-.4-.6-.4-.5-.3a2 2 0 0 1-.6-.4l-.6-.3-.6-.3-.6-.3-.6-.2-.7-.2-.5-.1-.8-.1-.4-.1L118 92V44.8l-.1-1.4-.1-.4-.1-1-.2-.7-.1-.5-.3-1-.1-.3a3 3 0 0 0-.4-.8l-.2-.4a2 2 0 0 0-.4-.6l-.3-.5-.3-.5-.4-.6-.3-.3-.6-.6-.3-.3-.7-.6-.4-.3-.6-.5-.8-.5-.3-.2-1.3-.6L36 1a13.5 13.5 0 1 0-10.5 25l65.4 27.6v295.8c0 28 21 51.2 48 54.7a54.5 54.5 0 1 0 93.8.5H354a54.6 54.6 0 1 0 47-27H146a28.2 28.2 0 0 1-28.2-28.2v-36.6a55.8 55.8 0 0 0 28.2 7.6zM213.4 432a27.5 27.5 0 0 1-55 0 27.5 27.5 0 0 1 55 0zm215.4 0a27.5 27.5 0 0 1-55 0 27.5 27.5 0 0 1 55 0zm-14.5-138.6H146a28.2 28.2 0 0 1-28.2-28.2V119.3L442.4 164v101a28.3 28.3 0 0 1-28.2 28.4z"/>
</symbol></svg>