<svg xmlns="http://www.w3.org/2000/svg" viewBox="0 0 502.6 502.6">
  <circle cx="250.4" cy="91.5" r="58.7"/>
  <path d="M455.9 253l-54.7-11.4a44.8 44.8 0 0 0-46.8 19.8c-9.5-4.8-19.6-9-30.4-12.5v-32.5a44.8 44.8 0 0 0-44.7-44.7h-56a44.8 44.8 0 0 0-44.6 44.7v32.7a197.8 197.8 0 0 0-30.3 12.5 44.8 44.8 0 0 0-46.8-20L46.9 253a45 45 0 0 0-34.6 53L26 371.6a44.9 44.9 0 0 0 52.9 34.7l17.3-3.7a126.6 126.6 0 0 0 36 34.7c32 21 74.3 32.5 119.1 32.5 68.6 0 127.7-27.6 155-67.2l17.6 3.7c24 5 47.9-10.6 52.8-34.7l13.8-65.6a45 45 0 0 0-34.6-53zM251.3 447.4c-40.5 0-78.5-10.2-106.8-28.9a112.5 112.5 0 0 1-24.2-21l13.3-2.7a45 45 0 0 0 34.6-53l-12.3-59a162 162 0 0 1 22.8-10v10.7a44.8 44.8 0 0 0 44.7 44.7h55.9a44.8 44.8 0 0 0 44.7-44.7v-11.3c8.1 2.9 15.8 6.2 23 10L334.3 342a45 45 0 0 0 34.7 53l13.4 2.7c-25 29.6-74.4 49.8-131.2 49.8z"/>
  <circle cx="444" cy="168.7" r="58.7"/>
  <path d="M70.7 226.2A58.8 58.8 0 1 0 46.5 111a58.8 58.8 0 0 0 24.2 115z"/>
  
</svg>
