<svg xmlns="http://www.w3.org/2000/svg" viewBox="0 0 612 612">
  <path d="M21.5 377.5V117.1A26.2 26.2 0 0 1 47.7 91h260.2a26.2 26.2 0 0 1 26.2 26.2v260.4c0 4.8-3.9 8.8-8.7 8.8H30.2c-4.8 0-8.7-4-8.7-8.8zm210.1 89.2a54.3 54.3 0 1 1-108.6 0 54.3 54.3 0 0 1 108.6 0zm-27.1 0a27.2 27.2 0 1 0-54.4 0 27.2 27.2 0 0 0 54.4 0zm-74-54.3H8.7A8.8 8.8 0 0 0 0 421v26.5c0 4.8 4 8.7 8.7 8.7h97.6a71.7 71.7 0 0 1 24.2-44zm385.4 54.3a54.3 54.3 0 1 1-108.6 0 54.3 54.3 0 0 1 108.6 0zm-27.1 0a27.2 27.2 0 1 0-54.4 0 27.2 27.2 0 0 0 54.4 0zM612 421.1v26.5c0 4.8-4 8.7-8.7 8.7h-70.7a71.8 71.8 0 0 0-142 0H248.3a71.7 71.7 0 0 0-24.2-44h135V162.7c0-9.7 7.8-17.5 17.5-17.5H459c23.2 0 45 11.6 57.9 30.8l53.2 78.7a69.9 69.9 0 0 1 12 39.1v118.7h21.2c4.8 0 8.7 3.9 8.7 8.7zm-88.6-164.5L481 196.2a8.7 8.7 0 0 0-7.1-3.7h-66.3c-4.9 0-8.8 4-8.8 8.8v60.4c0 4.8 4 8.7 8.8 8.7h108.8c7 0 11.2-8 7.1-13.8z"/>
</svg>
