<svg xmlns="http://www.w3.org/2000/svg" viewBox="0 0 512 512">
  <path d="M478 262.6c-2.1-4.2-2.1-9 0-13.2l19-39.1a44.4 44.4 0 0 0-19.1-59l-38.4-20.4a15 15 0 0 1-7.8-10.7l-7.5-42.9A44.4 44.4 0 0 0 374 41l-43.1 6a15 15 0 0 1-12.6-4L287 12.6a44.4 44.4 0 0 0-62 0L193.7 43a15 15 0 0 1-12.6 4l-43-6c-24-3.4-46 12.6-50.3 36.4l-7.5 42.9a15 15 0 0 1-7.8 10.7l-38.4 20.4a44.4 44.4 0 0 0-19.1 59l19 39c2.1 4.3 2.1 9.1 0 13.3l-19 39.1a44.4 44.4 0 0 0 19.1 59l38.4 20.4a15 15 0 0 1 7.8 10.7l7.5 42.9a44.4 44.4 0 0 0 50.3 36.4l43-6a15 15 0 0 1 12.6 4l31.3 30.3a44.5 44.5 0 0 0 62 0l31.3-30.3a15 15 0 0 1 12.6-4l43 6c24 3.4 46-12.6 50.3-36.4l7.5-42.9a15 15 0 0 1 7.8-10.7l38.4-20.4a44.4 44.4 0 0 0 19.2-59l-19.1-39zm-14 72L425.6 355a44.3 44.3 0 0 0-23 31.7l-7.5 42.9a15 15 0 0 1-17 12.3l-43-6a44.3 44.3 0 0 0-37.3 12l-31.3 30.3a15 15 0 0 1-21 0l-31.2-30.3a44.3 44.3 0 0 0-37.3-12l-43 6a15 15 0 0 1-17-12.3l-7.6-42.9a44.3 44.3 0 0 0-23-31.7L48 334.6a15 15 0 0 1-6.5-20l19-39a43.6 43.6 0 0 0 0-39.2l-19-39a15 15 0 0 1 6.5-20L86.4 157a44.3 44.3 0 0 0 23-31.7l7.5-42.9a15 15 0 0 1 17-12.3l43 6c13.8 2 27.4-2.4 37.3-12l31.3-30.3a15 15 0 0 1 21 0l31.3 30.3c10 9.6 23.5 14 37.2 12l43-6a15 15 0 0 1 17 12.3l7.6 42.9a44.3 44.3 0 0 0 23 31.7l38.4 20.4a15 15 0 0 1 6.5 20l-19 39a43.6 43.6 0 0 0 0 39.2l19 39a15 15 0 0 1-6.5 20z"/>
  <path d="M363.9 148.1a14.8 14.8 0 0 0-20.9 0l-194.9 195a14.8 14.8 0 0 0 20.9 20.8L363.9 169a14.8 14.8 0 0 0 0-20.9zm-166.9-25a54.2 54.2 0 1 0 0 108.4 54.2 54.2 0 0 0 0-108.4zm0 78.8a24.6 24.6 0 1 1 0-49.3 24.6 24.6 0 0 1 0 49.3zm118 78.7a54.2 54.2 0 1 0 .2 108.4 54.2 54.2 0 0 0-.1-108.4zm0 78.8a24.6 24.6 0 1 1 .1-49.3 24.6 24.6 0 0 1 0 49.3z"/>
</svg>
