<svg xmlns="http://www.w3.org/2000/svg" viewBox="0 0 486.6 486.6">
  <path d="M146 320.4h268.2a55.3 55.3 0 0 0 55.2-55.2v-114l-.1-.6-.1-.7-.1-.6-.2-.7-.2-.6-.2-.6-.3-.7-.3-.5-.3-.6-.3-.5-.4-.6-.4-.5-.4-.5-.4-.5-.4-.4-.5-.5-.5-.4-.6-.4-.5-.3a2 2 0 0 1-.6-.4l-.6-.3-.6-.3-.6-.3-.6-.2-.7-.2-.5-.1-.8-.1-.4-.1L118 92V44.8l-.1-1.4-.1-.4-.1-1-.2-.7-.1-.5-.3-1-.1-.3a3 3 0 0 0-.4-.8l-.2-.4a2 2 0 0 0-.4-.6l-.3-.5-.3-.5-.4-.6-.3-.3-.6-.6-.3-.3-.7-.6-.4-.3-.6-.5-.8-.5-.3-.2-1.3-.6L36 1a13.5 13.5 0 1 0-10.5 25l65.4 27.6v295.8c0 28 21 51.2 48 54.7a54.5 54.5 0 1 0 93.8.5H354a54.6 54.6 0 1 0 47-27H146a28.2 28.2 0 0 1-28.2-28.2v-36.6a55.8 55.8 0 0 0 28.2 7.6zM213.4 432a27.5 27.5 0 0 1-55 0 27.5 27.5 0 0 1 55 0zm215.4 0a27.5 27.5 0 0 1-55 0 27.5 27.5 0 0 1 55 0zm-14.5-138.6H146a28.2 28.2 0 0 1-28.2-28.2V119.3L442.4 164v101a28.3 28.3 0 0 1-28.2 28.4z"/>
</svg>
